<?xml version="1.0" standalone="no"?>
<!DOCTYPE svg PUBLIC "-//W3C//DTD SVG 20010904//EN"
 "http://www.w3.org/TR/2001/REC-SVG-20010904/DTD/svg10.dtd">
<svg version="1.0" xmlns="http://www.w3.org/2000/svg"
 width="431.000000pt" height="431.000000pt" viewBox="0 0 431.000000 431.000000"
 preserveAspectRatio="xMidYMid meet">
<metadata>
Created by potrace 1.14, written by Peter Selinger 2001-2017
</metadata>
<g transform="translate(0.000000,431.000000) scale(0.100000,-0.100000)"
fill="#000000" stroke="none">
<path d="M1898 4294 c-88 -11 -206 -34 -308 -59 -38 -9 -211 -69 -265 -92
-131 -55 -321 -159 -410 -225 -391 -288 -659 -651 -805 -1088 -34 -100 -59
-204 -84 -345 -21 -112 -28 -413 -13 -550 40 -384 187 -761 417 -1070 65 -86
83 -108 162 -192 267 -287 663 -519 1038 -608 32 -8 156 -34 183 -39 158 -28
535 -29 675 -1 9 1 46 8 82 15 266 50 549 168 790 328 69 46 127 86 130 90 3
4 32 30 65 57 141 118 308 309 415 475 111 173 219 420 270 615 25 93 24 91
46 215 18 107 27 470 14 560 -5 30 -11 73 -14 95 -12 82 -18 112 -41 205 -54
218 -149 438 -269 628 -36 56 -69 107 -75 114 -6 7 -32 40 -58 73 -67 85 -126
147 -272 285 -139 133 -442 313 -651 389 -19 7 -44 17 -55 22 -60 25 -292 82
-385 94 -30 4 -64 9 -75 12 -50 11 -408 9 -507 -3z"/>
</g>
</svg>
